<svg width="99" height="27" viewBox="0 0 99 27" fill="none" xmlns="http://www.w3.org/2000/svg">
<path opacity="0.939" fill-rule="evenodd" clip-rule="evenodd" d="M92.059 0C93.0753 0.0121148 93.924 0.38345 94.6056 1.11401C94.8755 1.43893 95.1449 1.76384 95.4148 2.08876C96.8124 4.39698 97.9391 6.82612 98.7944 9.37622C98.822 10.9393 98.8063 12.5019 98.7468 14.0643C98.8863 17.1587 97.6087 19.5027 94.915 21.0965C94.4942 21.3404 94.0658 21.5725 93.6298 21.7928C90.3192 23.2599 87.0034 24.7143 83.6814 26.1559C82.4276 26.1946 81.1743 26.1869 79.921 26.1327C79.4979 24.9827 79.0614 23.8377 78.612 22.6979C78.573 18.9659 78.6682 15.2371 78.8976 11.5114C78.9343 10.2659 79.1723 9.0591 79.6116 7.89088C79.7035 7.69319 79.8149 7.50752 79.9448 7.33388C80.3052 6.95154 80.6936 6.60341 81.111 6.2895C83.4963 4.61329 85.9082 2.97319 88.3462 1.3693C89.4777 0.622683 90.7153 0.166265 92.059 0ZM91.6306 1.02117C91.743 1.01361 91.8539 1.02131 91.9638 1.04438C90.4858 2.87233 89.026 4.71355 87.5846 6.568C85.4855 7.99755 83.3992 9.44422 81.3252 10.908C81.0363 10.1171 80.7431 9.32804 80.4446 8.54072C80.5931 8.09382 80.863 7.73018 81.2538 7.44992C83.6957 5.70232 86.1709 4.00035 88.6794 2.34406C89.5895 1.7378 90.573 1.29684 91.6306 1.02117ZM92.8682 1.11401C93.3309 1.30924 93.7198 1.60319 94.0344 1.99593C94.3729 2.38797 94.6742 2.80572 94.9388 3.24919C96.0969 5.28327 97.057 7.40299 97.8186 9.60831C96.4535 10.9475 95.065 12.2626 93.6536 13.5537C93.3557 9.4108 93.0939 5.26419 92.8682 1.11401ZM92.297 1.43893C92.6031 5.43621 92.8492 9.44353 93.0348 13.4609C91.3336 11.3031 89.6438 9.13699 87.9654 6.96254C89.421 5.12828 90.8652 3.28711 92.297 1.43893ZM87.299 7.38029C87.3409 7.37421 87.3723 7.38967 87.3942 7.42671C87.4647 7.55612 87.528 7.68767 87.5846 7.82125C87.1072 9.47542 86.6626 11.1387 86.2518 12.8111C84.7515 12.3131 83.2602 11.787 81.7774 11.2329C83.621 9.94771 85.4617 8.66349 87.299 7.38029ZM88.489 8.58713C89.9789 10.4083 91.4464 12.2496 92.892 14.1108C92.9239 14.1572 92.9239 14.2036 92.892 14.25C92.4017 14.6818 91.9257 15.1305 91.464 15.5961C90.4582 13.2643 89.4663 10.928 88.489 8.58713ZM86.9182 12.3933C87.2219 11.1475 87.5551 9.90969 87.9178 8.67997C88.242 9.39702 88.559 10.1165 88.8698 10.8384C88.2391 11.3841 87.5884 11.9024 86.9182 12.3933ZM80.159 9.42264C81.3105 12.3656 82.4215 15.3286 83.491 18.3115C82.5433 20.5426 81.5675 22.7628 80.5636 24.9723C80.2461 24.1368 79.9291 23.3013 79.6116 22.4658C79.5769 18.6248 79.6878 14.7876 79.9448 10.9544C79.9962 10.4407 80.0676 9.93007 80.159 9.42264ZM97.771 10.3974C97.8034 11.9838 97.7796 13.5775 97.6996 15.1783C97.5735 16.94 96.8195 18.3867 95.4386 19.5183C94.9988 19.8373 94.5466 20.139 94.082 20.4235C93.894 18.3738 93.7674 16.316 93.7012 14.25C95.0569 12.9597 96.4135 11.6755 97.771 10.3974ZM89.0602 11.3722C89.4929 12.3633 89.9213 13.3613 90.3454 14.366C90.3331 14.4246 90.3012 14.471 90.2502 14.5053C89.3239 15.0299 88.4033 15.5636 87.4894 16.1067C87.2248 15.1895 86.9706 14.2689 86.7278 13.3449C86.803 13.2246 86.8982 13.1162 87.0134 13.02C87.7046 12.477 88.3872 11.9277 89.0602 11.3722ZM81.6822 11.7899C83.1902 12.3161 84.6977 12.8422 86.2042 13.3681C86.4275 14.3167 86.6736 15.2605 86.942 16.1995C86.9739 16.2769 86.9739 16.3542 86.942 16.4316C85.9881 16.9978 85.0285 17.5548 84.0622 18.1026C83.9851 18.0259 83.9294 17.933 83.8956 17.8241C83.1435 15.8162 82.4057 13.8048 81.6822 11.7899ZM93.1062 14.7606C93.1448 14.8438 93.1686 14.9366 93.1776 15.0391C93.299 16.8025 93.3942 18.5663 93.4632 20.3306C92.873 18.9362 92.278 17.5437 91.6782 16.1531C92.1404 15.6712 92.6164 15.2071 93.1062 14.7606ZM90.4882 14.9463C90.5791 14.9497 90.6348 14.9961 90.6548 15.0855C90.7957 15.3901 90.9071 15.6996 90.988 16.0138C87.7593 19.0387 84.5301 22.0635 81.3014 25.0884C81.2276 25.1482 81.1482 25.1791 81.0634 25.1812C82.0102 23.0931 82.9384 20.9966 83.848 18.8917C86.0605 17.5696 88.2739 16.2544 90.4882 14.9463ZM91.2022 16.5244C91.2803 16.5824 91.3355 16.6598 91.3688 16.7565C91.9638 18.1336 92.5588 19.5106 93.1538 20.8876C89.9246 22.3319 86.6878 23.7632 83.4434 25.1812C82.9517 25.2122 82.4595 25.2122 81.9678 25.1812C85.0556 22.3018 88.1335 19.4162 91.2022 16.5244Z" fill="#00664A"/>
<path opacity="0.988" fill-rule="evenodd" clip-rule="evenodd" d="M26.6086 10.2582C27.5449 10.2504 28.481 10.2582 29.417 10.2814C29.5202 10.32 29.5916 10.3897 29.6312 10.4902C29.655 15.7199 29.663 20.9495 29.655 26.1792C28.7505 26.1869 27.8461 26.1792 26.9418 26.156C26.8012 26.1378 26.698 26.0681 26.6324 25.9471C26.6243 25.7135 26.6005 25.4814 26.561 25.2508C25.7825 25.7076 24.9416 25.9939 24.0382 26.1095C22.9252 26.216 21.8145 26.2005 20.7062 26.0631C19.0421 25.7124 17.7807 24.8228 16.922 23.3942C16.3523 22.2989 16.1381 21.1385 16.2794 19.9129C16.0517 17.5494 16.9402 15.7159 18.945 14.4125C19.5263 14.0946 20.1451 13.878 20.8014 13.7626C22.7357 13.6949 24.6714 13.6717 26.6086 13.693C26.6086 12.548 26.6086 11.4031 26.6086 10.2582ZM21.2774 16.6637C22.9594 16.6559 24.6412 16.6637 26.323 16.6869C26.4602 16.745 26.5474 16.8455 26.5848 16.9886C26.6166 18.0562 26.6166 19.1238 26.5848 20.1914C26.4075 21.4782 25.7173 22.3989 24.5142 22.9532C24.208 23.0743 23.8906 23.1516 23.5622 23.1853C22.8641 23.2162 22.166 23.2162 21.4678 23.1853C20.2599 22.9822 19.538 22.2936 19.302 21.1197C19.2575 20.2358 19.2734 19.3538 19.3496 18.474C19.6602 17.5289 20.3028 16.9255 21.2774 16.6637Z" fill="#00664A"/>
<path opacity="0.989" fill-rule="evenodd" clip-rule="evenodd" d="M4.90281 13.693C7.64781 13.6852 10.3927 13.693 13.1376 13.7162C13.2226 13.7526 13.294 13.8067 13.3518 13.8786C13.3756 17.9788 13.3836 22.0789 13.3756 26.1791C12.4711 26.1869 11.5667 26.1791 10.6624 26.1559C10.5341 26.1239 10.4309 26.0543 10.353 25.947C10.3372 25.715 10.3213 25.4829 10.3054 25.2508C8.96304 25.9923 7.51919 26.3018 5.97381 26.1791C3.33258 26.2384 1.46033 25.109 0.357012 22.7907C0.193553 22.3543 0.0825027 21.9056 0.0238119 21.4446C-0.0079373 20.4234 -0.0079373 19.4023 0.0238119 18.3811C0.527468 15.7006 2.15382 14.1379 4.90281 13.693ZM5.04561 16.6637C6.71171 16.6559 8.37771 16.6637 10.0436 16.6869C10.1286 16.7233 10.2 16.7774 10.2578 16.8493C10.312 17.4342 10.3358 18.0221 10.3292 18.6132C10.3213 19.1547 10.3134 19.6962 10.3054 20.2378C10.1298 21.5165 9.43962 22.4216 8.23481 22.9532C7.92855 23.0743 7.6112 23.1516 7.28281 23.1852C6.58466 23.2162 5.88656 23.2162 5.18841 23.1852C3.95833 22.9759 3.23638 22.2719 3.02261 21.0733C2.99086 20.2996 2.99086 19.526 3.02261 18.7524C3.25233 17.6389 3.92663 16.9427 5.04561 16.6637Z" fill="#00664A"/>
<path opacity="0.984" fill-rule="evenodd" clip-rule="evenodd" d="M37.4136 13.693C40.1744 13.6852 42.9352 13.693 45.696 13.7162C45.764 13.7378 45.8197 13.7765 45.8626 13.8322C45.9335 17.9441 45.9573 22.0597 45.934 26.1791C45.0134 26.1869 44.0933 26.1791 43.1732 26.1559C43.0513 26.1241 42.9642 26.0545 42.9114 25.947C42.8561 25.7189 42.8242 25.4868 42.8162 25.2508C42.0484 25.7118 41.2154 25.9981 40.3172 26.1095C39.1881 26.212 38.0619 26.1965 36.9376 26.0631C34.806 25.5697 33.4018 24.3087 32.725 22.2801C32.6203 21.9155 32.5569 21.5442 32.5346 21.1661C32.5028 20.3306 32.5028 19.4951 32.5346 18.6596C32.7816 16.4057 33.9795 14.8507 36.1284 13.9947C36.5563 13.8666 36.9847 13.766 37.4136 13.693ZM37.5564 16.6637C39.2381 16.6559 40.9202 16.6637 42.602 16.6869C42.67 16.7084 42.7257 16.7472 42.7686 16.8029C42.8233 17.4176 42.8471 18.0365 42.84 18.6596C42.8319 19.2475 42.8242 19.8355 42.8162 20.4234C42.4582 21.9946 41.4667 22.9152 39.8412 23.1852C39.1272 23.2162 38.4132 23.2162 37.6992 23.1852C36.5582 22.9698 35.8519 22.3122 35.581 21.2125C35.5357 20.2818 35.5515 19.3534 35.6286 18.4275C35.9282 17.4776 36.5706 16.8897 37.5564 16.6637Z" fill="#00664A"/>
<path opacity="0.988" fill-rule="evenodd" clip-rule="evenodd" d="M49.0763 13.693C49.9969 13.6852 50.917 13.693 51.8371 13.7162C51.9404 13.7548 52.0118 13.8245 52.0513 13.925C52.067 14.1571 52.0832 14.3892 52.0989 14.6213C52.8191 14.1705 53.6045 13.8842 54.4551 13.7626C56.0563 13.696 57.659 13.6728 59.2627 13.693C59.2708 14.5905 59.2627 15.4879 59.2389 16.3851C59.2018 16.468 59.1461 16.5377 59.0723 16.594C57.6947 16.6548 56.3143 16.6857 54.9311 16.6869C53.2979 17.0414 52.354 18.0239 52.0989 19.6343C52.0751 21.8159 52.067 23.9975 52.0751 26.1791C51.1864 26.1869 50.2977 26.1791 49.4095 26.1559C49.2672 26.1371 49.1639 26.0674 49.1001 25.947C49.0763 21.8624 49.0682 17.7777 49.0763 13.693Z" fill="#00664A"/>
<path opacity="0.985" fill-rule="evenodd" clip-rule="evenodd" d="M65.6886 13.693C66.8786 13.6852 68.0686 13.693 69.2586 13.7162C71.383 13.9934 72.8824 15.0842 73.7568 16.9886C74.1138 17.9321 74.2485 18.9068 74.1614 19.9128C74.3746 22.0849 73.613 23.8411 71.8766 25.1812C70.945 25.8037 69.914 26.1286 68.7826 26.1559C67.5897 26.2065 66.3997 26.1756 65.2126 26.0631C62.7874 25.4931 61.3356 24.0154 60.8572 21.6303C60.7625 20.4854 60.7625 19.3405 60.8572 18.1954C61.2465 16.1592 62.4289 14.759 64.4034 13.9947C64.8289 13.856 65.2573 13.7555 65.6886 13.693ZM65.8314 16.6637C66.9262 16.6559 68.021 16.6637 69.1158 16.6869C70.3529 16.9805 71.0274 17.7464 71.1388 18.9845C71.1802 19.7442 71.1645 20.5023 71.0912 21.2589C70.7975 22.3346 70.0911 22.9767 68.973 23.1852C67.9734 23.2162 66.9738 23.2162 65.9742 23.1852C64.8332 22.9698 64.1268 22.3122 63.856 21.2125C63.8108 20.2818 63.8265 19.3534 63.9036 18.4275C64.203 17.4776 64.8456 16.8897 65.8314 16.6637Z" fill="#00664A"/>
</svg>
